<svg xmlns="http://www.w3.org/2000/svg" viewBox="0 0 128 128" width="128" height="128" role="img" aria-label="karpwiki icon">
  <defs>
    <linearGradient id="bg" x1="0" y1="0" x2="1" y2="1">
      <stop offset="0%" stop-color="#4338CA"/>
      <stop offset="100%" stop-color="#0EA5E9"/>
    </linearGradient>
  </defs>

  <rect x="4" y="4" width="120" height="120" rx="26" fill="url(#bg)"/>

  <!-- wiki page -->
  <g transform="translate(30,26)">
    <path d="M4 0 H46 L58 12 V78 A4 4 0 0 1 54 82 H4 A4 4 0 0 1 0 78 V4 A4 4 0 0 1 4 0 Z"
          fill="#F8FAFC" stroke="#1E293B" stroke-width="2"/>
    <path d="M46 0 V12 H58 Z" fill="#CBD5E1" stroke="#1E293B" stroke-width="2" stroke-linejoin="round"/>
    <line x1="10" y1="28" x2="48" y2="28" stroke="#94A3B8" stroke-width="3" stroke-linecap="round"/>
    <line x1="10" y1="40" x2="48" y2="40" stroke="#94A3B8" stroke-width="3" stroke-linecap="round"/>
    <line x1="10" y1="52" x2="34" y2="52" stroke="#94A3B8" stroke-width="3" stroke-linecap="round"/>
  </g>

  <!-- agent network overlay -->
  <g stroke="#FDE68A" stroke-width="2.5" fill="#FDE68A">
    <line x1="64" y1="96" x2="92" y2="82" stroke-linecap="round"/>
    <line x1="64" y1="96" x2="92" y2="108" stroke-linecap="round"/>
    <line x1="92" y1="82" x2="92" y2="108" stroke-linecap="round"/>
    <circle cx="64" cy="96" r="6" stroke="#78350F" stroke-width="1.5"/>
    <circle cx="92" cy="82" r="6" stroke="#78350F" stroke-width="1.5"/>
    <circle cx="92" cy="108" r="6" stroke="#78350F" stroke-width="1.5"/>
  </g>
</svg>
